# Blender 4.1.1
# www.blender.org
mtllib mediaquesadilla5.mtl
o Tortilla
v 0.891665 0.045144 0.005275
v -0.891665 0.045144 0.005275
v 0.891902 0.042738 0.010347
v -0.891902 0.042738 0.010347
v 0.892287 0.038832 0.015022
v -0.892287 0.038832 0.015022
v 0.892805 0.033574 0.019119
v -0.892805 0.033574 0.019119
v 0.893436 0.027168 0.022482
v -0.893436 0.027168 0.022482
v 0.894156 0.019859 0.024981
v -0.894156 0.019859 0.024981
v -0.497853 -0.745089 0.025791
v -0.342927 -0.827899 0.025879
v -0.633646 -0.633646 0.025673
v -0.745089 -0.497853 0.025529
v -0.827899 -0.342927 0.025365
v -0.878893 -0.174823 0.025187
v 0.896111 -0.000000 0.025002
v -0.896111 0.000000 0.025002
v -0.000000 -0.896111 0.025951
v -0.174823 -0.878893 0.025933
v 0.174823 -0.878893 0.025933
v 0.342927 -0.827899 0.025879
v 0.878893 -0.174823 0.025187
v 0.827899 -0.342927 0.025365
v 0.745089 -0.497853 0.025529
v 0.633646 -0.633646 0.025673
v 0.497853 -0.745089 0.025791
v 0.892470 0.036968 0.003955
v -0.892470 0.036969 0.003955
v 0.892708 0.034557 0.007758
v -0.892708 0.034557 0.007758
v 0.893094 0.030640 0.011263
v -0.893094 0.030640 0.011263
v 0.893613 0.025369 0.014335
v -0.893613 0.025369 0.014335
v 0.894245 0.018946 0.016856
v -0.894245 0.018946 0.016856
v 0.894967 0.011619 0.018730
v -0.894967 0.011619 0.018730
v -0.000000 -0.896111 0.019449
v -0.174823 -0.878893 0.019436
v 0.174823 -0.878893 0.019436
v -0.342927 -0.827899 0.019395
v -0.878893 -0.174823 0.018878
v -0.827899 -0.342927 0.019011
v -0.745089 -0.497853 0.019134
v -0.633646 -0.633646 0.019241
v -0.497853 -0.745089 0.019330
v 0.342927 -0.827899 0.019395
v 0.745089 -0.497853 0.019134
v 0.633646 -0.633646 0.019241
v 0.497853 -0.745089 0.019330
v 0.878893 -0.174823 0.018878
v 0.827899 -0.342927 0.019011
v 0.896111 -0.000000 0.018739
v -0.896111 0.000000 0.018739
v -0.891594 0.045861 0.000620
v 0.891594 0.045861 0.000620
v -0.892403 0.037655 0.000620
v 0.892403 0.037655 0.000620
vn -0.0000 0.9883 0.1522
vn -0.0000 0.9035 0.4285
vn -0.0000 0.7673 0.6413
vn -0.0000 0.6147 0.7888
vn -0.0000 0.4648 0.8854
vn -0.0000 0.3235 0.9462
vn -0.0000 0.0011 1.0000
vn -0.0000 -0.9795 -0.2017
vn -0.0000 -0.8445 -0.5356
vn -0.0000 -0.6669 -0.7452
vn -0.0000 -0.5036 -0.8640
vn -0.0000 -0.3654 -0.9308
vn -0.0000 -0.2477 -0.9688
vn -0.0000 -0.0008 -1.0000
vn -0.0980 -0.9952 -0.0000
vn -0.2903 -0.9569 -0.0000
vn -0.4714 -0.8819 -0.0000
vn -0.6344 -0.7730 -0.0000
vn -0.7730 -0.6344 -0.0000
vn -0.8819 -0.4714 -0.0000
vn -0.9569 -0.2903 -0.0000
vn -0.9952 -0.0980 -0.0000
vn -0.9952 0.0980 -0.0000
vn 0.9952 0.0980 -0.0000
vn 0.9952 -0.0980 -0.0000
vn 0.9569 -0.2903 -0.0000
vn 0.8819 -0.4714 -0.0000
vn 0.7730 -0.6344 -0.0000
vn 0.6344 -0.7730 -0.0000
vn 0.4714 -0.8819 -0.0000
vn 0.2903 -0.9569 -0.0000
vn 0.0980 -0.9952 -0.0000
vn -0.0000 -0.0000 -1.0000
vt 0.718750 0.964041
vt 0.718750 0.535959
vt 0.746326 0.535976
vt 0.746326 0.964024
vt 0.687500 0.964097
vt 0.687500 0.535903
vt 0.687500 0.535903
vt 0.687500 0.964097
vt 0.656250 0.964190
vt 0.656250 0.535810
vt 0.656250 0.535810
vt 0.625000 0.964314
vt 0.625000 0.535686
vt 0.625000 0.535686
vt 0.625000 0.964314
vt 0.593750 0.964466
vt 0.593750 0.535534
vt 0.562500 0.964638
vt 0.562500 0.535362
vt 0.921104 0.134823
vt 0.929354 0.014652
vt 0.928417 0.001001
vt 0.071583 0.001001
vt 0.070646 0.014652
vt 0.078895 0.134823
vt 0.103328 0.250376
vt 0.143004 0.356870
vt 0.196400 0.450213
vt 0.261463 0.526817
vt 0.335692 0.583740
vt 0.416236 0.618792
vt 0.499999 0.630628
vt 0.583762 0.618792
vt 0.664306 0.583740
vt 0.738536 0.526817
vt 0.803599 0.450213
vt 0.856995 0.356870
vt 0.896671 0.250376
vt 0.745100 0.545844
vt 0.718750 0.545829
vt 0.718750 0.954171
vt 0.745100 0.954156
vt 0.687500 0.954226
vt 0.718750 0.954171
vt 0.718750 0.545829
vt 0.687500 0.545774
vt 0.656250 0.954314
vt 0.656250 0.545686
vt 0.625000 0.954433
vt 0.656250 0.954314
vt 0.656250 0.545686
vt 0.625000 0.545567
vt 0.593750 0.954577
vt 0.625000 0.954433
vt 0.625000 0.545567
vt 0.593750 0.545422
vt 0.562500 0.954743
vt 0.593750 0.954578
vt 0.593750 0.545422
vt 0.562500 0.545257
vt 0.562251 0.955004
vt 0.562500 0.954743
vt 0.562250 0.544996
vt 0.558497 0.548935
vt 0.554888 0.560601
vt 0.551562 0.579545
vt 0.548647 0.605040
vt 0.546254 0.636106
vt 0.544476 0.671549
vt 0.543381 0.710006
vt 0.543012 0.750000
vt 0.543381 0.789995
vt 0.544476 0.828452
vt 0.546254 0.863895
vt 0.548647 0.894960
vt 0.551562 0.920455
vt 0.554888 0.939399
vt 0.558497 0.951065
vt 0.500000 0.510852
vt 0.500000 0.514480
vt 0.597545 0.514470
vt 0.597545 0.510845
vt 0.597545 0.510844
vt 0.597545 0.514470
vt 0.691342 0.514440
vt 0.691342 0.510822
vt 0.691342 0.510822
vt 0.777785 0.514391
vt 0.777785 0.510785
vt 0.777785 0.510785
vt 0.853553 0.514325
vt 0.853553 0.510736
vt 0.853553 0.510736
vt 0.777785 0.514245
vt 0.777785 0.510676
vt 0.777785 0.514244
vt 0.691342 0.514153
vt 0.691342 0.510607
vt 0.691342 0.510607
vt 0.597545 0.514054
vt 0.597545 0.510533
vt 0.597545 0.514054
vt 0.500000 0.513950
vt 0.500000 0.510456
vt 0.478990 0.500346
vt 0.479373 0.502207
vt 0.480719 0.504329
vt 0.482904 0.506284
vt 0.485845 0.507999
vt 0.489428 0.509405
vt 0.493517 0.510451
vt 0.488920 0.513938
vt 0.484841 0.512544
vt 0.481267 0.510668
vt 0.478333 0.508382
vt 0.476153 0.505774
vt 0.474811 0.502943
vt 0.474411 0.500346
vt 0.474411 0.500346
vt 0.474811 0.502943
vt 0.476153 0.505773
vt 0.478333 0.508382
vt 0.481267 0.510668
vt 0.484841 0.512544
vt 0.488919 0.513938
vt 0.493517 0.510451
vt 0.489428 0.509405
vt 0.485845 0.507999
vt 0.482904 0.506284
vt 0.480719 0.504329
vt 0.479373 0.502207
vt 0.691342 0.510607
vt 0.691342 0.514153
vt 0.777785 0.510676
vt 0.777785 0.514245
vt 0.853553 0.514325
vt 0.146447 0.514325
vt 0.222215 0.514391
vt 0.222215 0.510785
vt 0.146447 0.510736
vt 0.222215 0.514391
vt 0.308658 0.514440
vt 0.308658 0.510822
vt 0.222215 0.510785
vt 0.308658 0.514440
vt 0.402455 0.514470
vt 0.402455 0.510845
vt 0.402455 0.514470
vt 0.500000 0.514480
vt 0.500000 0.510852
vt 0.402455 0.510845
vt 0.568017 0.771715
vt 0.566798 0.771621
vt 0.566798 0.978379
vt 0.568017 0.978285
s 0
usemtl Material.002
f 2/1/1 1/2/1 60/3/1 59/4/1
f 1/2/2 2/1/2 4/5/2 3/6/2
f 3/7/3 4/8/3 6/9/3 5/10/3
f 5/11/4 6/9/4 8/12/4 7/13/4
f 7/14/5 8/15/5 10/16/5 9/17/5
f 9/17/6 10/16/6 12/18/6 11/19/6
f 25/20/7 19/21/7 11/22/7 12/23/7 20/24/7 18/25/7 17/26/7 16/27/7 15/28/7 13/29/7 14/30/7 22/31/7 21/32/7 23/33/7 24/34/7 29/35/7 28/36/7 27/37/7 26/38/7
f 62/39/8 30/40/8 31/41/8 61/42/8
f 33/43/9 31/44/9 30/45/9 32/46/9
f 35/47/10 33/43/10 32/46/10 34/48/10
f 37/49/11 35/50/11 34/51/11 36/52/11
f 39/53/12 37/54/12 36/55/12 38/56/12
f 41/57/13 39/58/13 38/59/13 40/60/13
f 58/61/14 41/62/14 40/60/14 57/63/14 55/64/14 56/65/14 52/66/14 53/67/14 54/68/14 51/69/14 44/70/14 42/71/14 43/72/14 45/73/14 50/74/14 49/75/14 48/76/14 47/77/14 46/78/14
f 42/79/15 21/80/15 22/81/15 43/82/15
f 43/83/16 22/84/16 14/85/16 45/86/16
f 45/87/17 14/85/17 13/88/17 50/89/17
f 50/90/18 13/88/18 15/91/18 49/92/18
f 49/93/19 15/91/19 16/94/19 48/95/19
f 48/95/20 16/96/20 17/97/20 47/98/20
f 47/99/21 17/97/21 18/100/21 46/101/21
f 46/101/22 18/102/22 20/103/22 58/104/22
f 61/105/23 31/106/23 33/107/23 35/108/23 37/109/23 39/110/23 41/111/23 58/104/23 20/103/23 12/112/23 10/113/23 8/114/23 6/115/23 4/116/23 2/117/23 59/118/23
f 60/119/24 1/120/24 3/121/24 5/122/24 7/123/24 9/124/24 11/125/24 19/103/24 57/104/24 40/126/24 38/127/24 36/128/24 34/129/24 32/130/24 30/131/24 62/105/24
f 19/103/25 25/102/25 55/101/25 57/104/25
f 25/102/26 26/97/26 56/132/26 55/101/26
f 26/133/27 27/94/27 52/134/27 56/98/27
f 27/135/28 28/136/28 53/92/28 52/134/28
f 28/137/29 29/138/29 54/139/29 53/140/29
f 29/141/30 24/142/30 51/143/30 54/144/30
f 24/145/31 23/146/31 44/147/31 51/143/31
f 23/148/32 21/149/32 42/150/32 44/151/32
f 60/152/33 62/153/33 61/154/33 59/155/33
